<?xml version="1.0" standalone="no"?>
<!DOCTYPE svg PUBLIC "-//W3C//DTD SVG 20010904//EN"
 "http://www.w3.org/TR/2001/REC-SVG-20010904/DTD/svg10.dtd">
<svg version="1.0" xmlns="http://www.w3.org/2000/svg"
 width="2113.000000pt" height="2113.000000pt" viewBox="0 0 2113.000000 2113.000000"
 preserveAspectRatio="xMidYMid meet">
<metadata>
Created by potrace 1.11, written by Peter Selinger 2001-2013
</metadata>
<g transform="translate(0.000000,2113.000000) scale(0.100000,-0.100000)"
fill="#000000" stroke="none">
<path d="M10535 19652 c-11 -4 -74 -37 -140 -73 -141 -78 -1048 -529 -1074
-534 -9 -2 -82 -35 -161 -73 -239 -116 -426 -202 -446 -207 -10 -2 -82 -33
-159 -69 -77 -36 -144 -66 -150 -66 -6 0 -71 -27 -145 -60 -74 -33 -140 -60
-146 -60 -6 0 -76 -27 -154 -60 -78 -33 -148 -60 -154 -60 -6 0 -74 -24 -151
-54 -137 -53 -163 -62 -375 -134 -58 -20 -161 -56 -229 -80 -69 -24 -136 -45
-150 -47 -14 -2 -89 -24 -165 -49 -77 -25 -146 -46 -154 -46 -8 0 -65 -16
-126 -35 -62 -19 -132 -39 -156 -44 -25 -4 -106 -24 -180 -44 -172 -45 -404
-99 -444 -103 -17 -1 -80 -14 -140 -29 -60 -14 -126 -27 -145 -29 -20 -2 -94
-15 -166 -29 -262 -51 -411 -78 -455 -82 -25 -3 -101 -16 -169 -30 -68 -14
-126 -23 -130 -21 -3 2 -71 -9 -150 -25 -79 -16 -146 -27 -150 -25 -3 2 -60
-7 -126 -20 -65 -13 -142 -26 -171 -29 -28 -3 -109 -16 -179 -30 -70 -13 -131
-23 -134 -21 -4 3 -60 -7 -126 -20 -66 -14 -142 -27 -170 -30 -66 -6 -109 -21
-130 -44 -16 -17 -17 -45 -11 -347 3 -180 8 -382 11 -448 11 -262 17 -414 20
-495 1 -47 8 -193 15 -325 7 -132 13 -276 15 -320 1 -44 8 -179 15 -300 6
-121 13 -258 15 -305 1 -47 8 -184 15 -305 6 -121 13 -256 15 -300 2 -44 8
-165 15 -270 6 -104 13 -230 16 -280 2 -49 9 -143 14 -208 6 -64 9 -120 7
-125 -3 -4 1 -67 9 -141 8 -74 13 -146 12 -160 -3 -50 44 -559 69 -746 8 -66
17 -138 18 -160 6 -82 125 -684 211 -1060 122 -536 222 -934 306 -1214 22 -74
41 -143 42 -155 3 -21 57 -186 148 -453 26 -77 48 -146 48 -152 0 -6 25 -73
55 -149 31 -75 57 -147 60 -159 l4 -23 -940 0 c-619 0 -939 -3 -939 -10 0 -5
5 -10 10 -10 6 0 10 -7 10 -15 0 -8 5 -15 10 -15 6 0 10 -13 10 -30 0 -16 5
-30 10 -30 6 0 10 -6 10 -13 0 -7 9 -19 20 -27 11 -8 20 -20 20 -27 0 -7 5
-13 10 -13 6 0 10 -7 10 -15 0 -8 5 -15 10 -15 6 0 10 -6 10 -14 0 -8 4 -16 8
-18 16 -7 52 -67 52 -87 0 -12 5 -21 10 -21 6 0 10 -4 10 -10 0 -9 19 -35 47
-65 7 -8 13 -18 13 -24 0 -6 5 -11 10 -11 6 0 10 -7 10 -15 0 -8 3 -15 8 -15
4 0 18 -18 32 -40 14 -22 28 -40 32 -40 5 0 8 -7 8 -15 0 -8 5 -15 10 -15 6 0
10 -10 10 -23 0 -13 9 -33 20 -45 11 -12 20 -26 20 -32 0 -5 5 -10 10 -10 6 0
10 -7 10 -15 0 -8 3 -15 8 -15 4 0 23 -25 42 -55 19 -30 38 -55 43 -55 4 0 7
-5 7 -10 0 -6 9 -20 20 -32 11 -12 20 -31 20 -43 0 -12 9 -31 20 -43 11 -12
20 -25 20 -31 0 -5 4 -11 8 -13 5 -1 23 -25 42 -53 18 -27 36 -52 40 -55 16
-13 50 -70 50 -83 0 -19 32 -77 43 -77 4 0 7 -7 7 -15 0 -8 5 -15 10 -15 6 0
10 -4 10 -10 0 -9 19 -35 48 -65 6 -8 12 -18 12 -24 0 -6 5 -11 10 -11 6 0 10
-7 10 -15 0 -8 5 -15 10 -15 6 0 10 -10 10 -23 0 -13 9 -33 20 -45 11 -12 20
-26 20 -32 0 -5 5 -10 10 -10 6 0 10 -7 10 -15 0 -8 5 -15 10 -15 6 0 10 -6
10 -13 0 -7 9 -19 20 -27 11 -8 20 -20 20 -27 0 -7 5 -13 10 -13 6 0 10 -7 10
-15 0 -8 5 -15 10 -15 6 0 10 -7 10 -15 0 -8 5 -15 10 -15 6 0 10 -7 10 -15 0
-8 5 -15 10 -15 6 0 10 -11 10 -25 0 -14 5 -25 10 -25 6 0 10 -13 10 -30 0
-16 -4 -30 -10 -30 -5 0 -10 -11 -10 -25 0 -22 -12 -43 -47 -80 -7 -8 -13 -18
-13 -24 0 -6 -4 -11 -10 -11 -5 0 -10 -7 -10 -15 0 -8 -4 -15 -10 -15 -5 0
-10 -7 -10 -15 0 -8 -4 -15 -10 -15 -5 0 -10 -11 -10 -25 0 -18 -5 -25 -20
-25 -16 0 -20 -7 -20 -30 0 -16 -4 -30 -10 -30 -5 0 -10 -4 -10 -10 0 -9 -19
-35 -47 -65 -7 -8 -13 -25 -13 -39 0 -14 -4 -26 -10 -26 -5 0 -10 -4 -10 -10
0 -9 -19 -35 -47 -65 -7 -8 -13 -18 -13 -24 0 -6 -4 -11 -9 -11 -5 0 -13 -15
-17 -32 -6 -32 -68 -132 -106 -172 -10 -11 -18 -29 -18 -41 0 -12 -9 -31 -20
-43 -11 -12 -20 -25 -20 -31 0 -5 -4 -11 -8 -13 -16 -6 -72 -97 -72 -117 0
-12 -3 -21 -7 -21 -5 0 -24 -25 -43 -55 -19 -30 -38 -55 -42 -55 -5 0 -8 -7
-8 -15 0 -8 -4 -15 -10 -15 -5 0 -10 -10 -10 -23 0 -13 -9 -33 -20 -45 -11
-12 -20 -26 -20 -32 0 -5 -4 -10 -10 -10 -5 0 -10 -7 -10 -15 0 -8 -4 -15 -10
-15 -5 0 -10 -5 -10 -10 0 -6 -9 -20 -20 -32 -11 -12 -20 -32 -20 -45 0 -13
-4 -23 -10 -23 -5 0 -10 -4 -10 -10 0 -9 -19 -35 -47 -65 -7 -8 -13 -18 -13
-24 0 -6 -4 -11 -10 -11 -5 0 -10 -5 -10 -10 0 -6 -9 -20 -20 -32 -11 -12 -20
-32 -20 -45 0 -13 -4 -23 -10 -23 -5 0 -10 -7 -10 -15 0 -8 -4 -15 -10 -15 -5
0 -10 -7 -10 -15 0 -8 -4 -15 -10 -15 -5 0 -10 -6 -10 -13 0 -7 -9 -19 -20
-27 -12 -8 -20 -26 -20 -42 0 -21 -5 -28 -20 -28 -15 0 -20 -7 -20 -28 0 -16
-8 -34 -20 -42 -11 -8 -20 -18 -20 -22 0 -4 393 -9 873 -10 l872 -3 5 -470 c3
-258 7 -471 8 -472 1 -2 395 -4 874 -5 l873 -3 3 -457 2 -458 1164 0 1163 0
79 -67 c43 -37 120 -103 170 -148 116 -103 237 -205 388 -329 67 -54 148 -122
181 -150 83 -72 274 -198 478 -315 23 -13 68 -41 100 -63 32 -21 61 -38 64
-38 7 0 245 -161 261 -176 16 -16 415 -214 431 -214 7 0 10 -4 7 -8 -3 -5 30
-21 74 -36 l79 -28 118 47 c129 52 495 228 515 249 16 15 254 176 261 176 3 0
32 17 64 38 32 22 77 50 100 63 204 117 395 243 478 315 33 28 114 96 181 150
150 123 271 225 388 329 50 44 124 109 164 143 l73 62 1154 0 1155 0 2 458 3
457 873 3 c479 1 873 3 874 5 1 1 5 214 8 472 l5 470 873 3 c479 1 872 6 872
10 0 4 -9 14 -20 22 -11 8 -20 20 -20 27 0 7 -4 13 -10 13 -5 0 -10 9 -10 20
0 24 -18 58 -42 81 -10 9 -18 21 -18 28 0 6 -4 11 -10 11 -5 0 -10 7 -10 15 0
8 -4 15 -10 15 -5 0 -10 7 -10 15 0 8 -4 15 -10 15 -5 0 -10 10 -10 23 0 13
-9 33 -20 45 -11 12 -20 26 -20 32 0 5 -4 10 -10 10 -5 0 -10 4 -10 10 0 9
-19 35 -47 65 -7 8 -13 25 -13 39 0 14 -3 26 -8 26 -4 0 -18 18 -32 40 -14 22
-28 40 -32 40 -5 0 -8 7 -8 15 0 8 -4 15 -10 15 -5 0 -10 5 -10 10 0 6 -9 20
-20 32 -11 12 -20 32 -20 45 0 13 -4 23 -10 23 -5 0 -10 7 -10 15 0 8 -3 15
-7 15 -5 0 -24 25 -43 55 -19 30 -38 55 -42 55 -5 0 -8 9 -8 21 0 20 -56 111
-72 117 -4 2 -8 8 -8 13 0 6 -9 19 -20 31 -11 12 -20 31 -20 43 0 12 -8 30
-18 41 -38 40 -100 140 -106 172 -4 17 -12 32 -17 32 -5 0 -9 4 -9 10 0 9 -19
35 -47 65 -7 8 -13 18 -13 24 0 6 -4 11 -10 11 -5 0 -10 11 -10 25 0 22 -12
43 -47 80 -7 8 -13 18 -13 24 0 6 -4 11 -10 11 -5 0 -10 7 -10 15 0 8 -4 15
-10 15 -5 0 -10 7 -10 15 0 8 -4 15 -10 15 -5 0 -10 11 -10 25 0 14 -4 25 -10
25 -5 0 -10 7 -10 15 0 8 -4 15 -10 15 -5 0 -10 7 -10 15 0 8 -4 15 -10 15 -5
0 -10 4 -10 10 0 9 -19 35 -47 65 -7 8 -13 18 -13 24 0 6 -4 11 -10 11 -5 0
-10 20 -10 45 0 25 5 45 10 45 6 0 10 11 10 25 0 14 5 25 10 25 6 0 10 7 10
15 0 8 5 15 10 15 6 0 10 7 10 15 0 8 5 15 10 15 6 0 10 7 10 15 0 8 5 15 10
15 6 0 10 6 10 13 0 7 9 19 20 27 11 8 20 20 20 27 0 7 5 13 10 13 6 0 10 7
10 15 0 8 5 15 10 15 6 0 10 5 10 10 0 6 9 20 20 32 11 12 20 32 20 45 0 16 6
23 20 23 15 0 20 7 20 25 0 22 12 43 48 80 6 8 12 18 12 24 0 6 5 11 10 11 6
0 10 6 10 14 0 8 3 16 8 18 14 6 62 88 62 106 0 10 8 27 18 38 10 10 33 42 52
69 19 28 37 52 42 53 4 2 8 8 8 13 0 6 9 19 20 31 11 12 20 31 20 43 0 12 9
31 20 43 11 12 20 26 20 32 0 5 3 10 8 10 4 0 23 25 42 55 19 30 38 55 43 55
4 0 7 7 7 15 0 8 5 15 10 15 6 0 10 5 10 10 0 6 9 20 20 32 11 12 20 32 20 45
0 13 5 23 10 23 6 0 10 7 10 15 0 8 3 15 8 15 4 0 18 18 32 40 14 22 28 40 32
40 5 0 8 7 8 15 0 8 5 15 10 15 6 0 10 4 10 10 0 9 19 35 48 65 6 8 12 18 12
24 0 6 5 11 10 11 6 0 10 9 10 21 0 20 36 80 52 87 4 2 8 10 8 18 0 8 5 14 10
14 6 0 10 7 10 15 0 8 5 15 10 15 6 0 10 6 10 13 0 7 9 19 20 27 11 8 20 20
20 27 0 7 5 13 10 13 6 0 10 14 10 30 0 17 5 30 10 30 6 0 10 7 10 15 0 8 5
15 10 15 6 0 10 5 10 10 0 7 -315 10 -925 10 l-925 0 5 28 c2 15 29 89 60 164
30 76 55 143 55 149 0 6 22 75 48 152 91 267 145 432 148 453 1 12 20 81 42
155 84 280 184 678 306 1214 86 376 205 978 211 1060 1 22 10 94 18 160 25
187 72 696 69 746 -1 14 4 86 12 160 8 74 12 137 9 141 -2 5 1 61 7 125 5 65
12 159 14 208 3 50 10 176 16 280 7 105 13 226 15 270 2 44 9 179 15 300 7
121 14 258 15 305 2 47 9 184 15 305 7 121 14 256 15 300 2 44 8 188 15 320 7
132 14 278 15 325 3 81 9 233 20 495 3 66 8 268 11 448 6 302 5 330 -11 347
-21 23 -64 38 -130 44 -27 3 -104 16 -170 30 -66 13 -122 23 -126 20 -3 -2
-64 8 -134 21 -70 14 -151 27 -179 30 -29 3 -106 16 -171 29 -66 13 -123 22
-126 20 -4 -2 -71 9 -150 25 -79 16 -147 27 -150 25 -4 -2 -62 7 -130 21 -68
14 -144 27 -169 30 -44 4 -193 31 -455 82 -71 14 -146 27 -166 29 -19 2 -85
15 -145 29 -60 15 -123 28 -140 29 -40 4 -272 58 -444 103 -74 20 -155 40
-180 44 -24 5 -94 25 -156 44 -61 19 -118 35 -126 35 -8 0 -77 21 -154 46 -76
25 -151 47 -165 49 -14 2 -81 23 -150 47 -68 24 -171 60 -229 80 -212 72 -238
81 -375 134 -77 30 -145 54 -151 54 -6 0 -76 27 -154 60 -78 33 -148 60 -154
60 -6 0 -72 27 -146 60 -74 33 -139 60 -145 60 -6 0 -73 30 -150 66 -77 36
-149 67 -159 69 -20 5 -207 91 -446 207 -79 38 -152 71 -161 73 -26 5 -966
473 -1093 544 -107 60 -140 69 -191 53z m383 -716 c297 -148 509 -251 892
-431 277 -131 439 -205 446 -205 4 0 66 -27 138 -59 72 -33 169 -75 216 -94
47 -19 119 -49 160 -66 192 -79 313 -126 410 -161 58 -21 130 -48 160 -60 110
-45 722 -249 940 -313 300 -89 674 -191 780 -212 36 -7 126 -26 200 -43 258
-59 698 -141 1208 -226 278 -47 445 -75 597 -100 264 -43 437 -75 442 -80 6
-6 -9 -451 -33 -996 -14 -314 -20 -447 -58 -1230 -9 -168 -20 -397 -25 -510
-6 -113 -15 -275 -20 -360 -6 -85 -15 -231 -21 -325 -6 -93 -15 -231 -20 -305
-5 -74 -14 -202 -20 -285 -24 -331 -64 -684 -106 -920 -70 -392 -210 -1025
-342 -1545 -110 -431 -115 -450 -228 -815 -83 -267 -140 -429 -281 -800 l-39
-100 -186 -3 -187 -2 15 42 c8 24 32 88 54 143 235 593 431 1234 604 1970 19
83 47 199 61 258 24 104 73 332 135 632 77 373 119 685 150 1110 21 295 29
422 39 580 6 88 15 234 21 325 6 91 15 257 21 370 5 113 16 342 25 510 87
1774 85 1630 19 1769 -47 98 -130 180 -228 227 -75 35 -89 38 -452 100 -752
127 -1362 249 -1645 328 -47 13 -107 29 -135 35 -153 36 -590 166 -875 262
-506 169 -810 282 -1186 440 -78 32 -144 59 -148 59 -3 0 -76 32 -161 70 -85
39 -157 70 -160 70 -5 0 -163 72 -453 208 -79 37 -295 141 -480 231 -185 90
-364 175 -397 189 -79 33 -222 42 -310 19 -33 -9 -226 -97 -428 -196 -203
-100 -371 -181 -375 -181 -3 0 -76 -33 -161 -74 -236 -112 -439 -206 -446
-206 -3 0 -75 -31 -160 -70 -85 -38 -158 -70 -161 -70 -4 0 -70 -27 -148 -59
-376 -158 -680 -271 -1186 -440 -285 -96 -722 -226 -875 -262 -27 -6 -88 -22
-135 -35 -283 -79 -893 -201 -1645 -328 -363 -62 -377 -65 -452 -100 -98 -47
-181 -129 -228 -227 -56 -118 -58 -135 -40 -525 15 -327 21 -461 59 -1244 9
-168 20 -397 25 -510 6 -113 15 -275 20 -360 6 -85 15 -231 21 -325 10 -164
17 -270 40 -590 31 -425 73 -737 150 -1110 62 -300 111 -528 135 -632 14 -59
42 -175 61 -258 115 -492 205 -811 361 -1295 90 -277 131 -390 253 -701 28
-70 50 -131 50 -138 0 -8 -53 -11 -184 -11 l-183 0 -33 88 c-18 48 -57 150
-86 227 -111 295 -273 802 -344 1075 -166 640 -245 976 -370 1582 -81 394
-128 745 -160 1203 -6 83 -15 211 -20 285 -5 74 -14 207 -19 295 -6 88 -15
234 -21 325 -6 91 -15 257 -21 370 -5 113 -16 342 -25 510 -38 783 -44 916
-58 1230 -24 545 -39 990 -33 996 5 5 178 37 442 80 152 25 319 53 598 100
509 85 949 167 1207 226 74 17 164 36 200 43 106 21 480 123 780 212 218 64
830 268 940 313 30 12 102 39 160 60 97 35 218 82 410 161 41 17 113 47 160
66 47 19 144 61 216 94 72 32 134 59 138 59 7 0 171 75 446 205 379 178 647
309 927 449 169 85 314 155 321 155 6 1 159 -73 340 -163z m642 -1405 c0 -5
29 -52 64 -103 34 -51 70 -107 80 -125 9 -18 27 -44 40 -58 24 -26 51 -65 141
-205 26 -41 57 -84 67 -95 11 -11 55 -76 99 -144 45 -68 86 -130 93 -136 6 -7
36 -50 65 -96 92 -142 124 -189 131 -189 3 0 21 -26 40 -57 18 -32 53 -86 77
-120 l43 -62 0 -1435 0 -1436 -37 -58 c-85 -133 -118 -182 -125 -182 -4 0 -23
-27 -42 -60 -19 -33 -91 -140 -158 -237 -68 -98 -136 -199 -151 -225 -15 -27
-31 -48 -35 -48 -4 0 -25 -28 -46 -63 -53 -84 -137 -209 -153 -227 -19 -22
-134 -197 -166 -252 -15 -27 -33 -48 -40 -48 -7 0 -59 70 -116 155 l-105 155
-732 0 c-617 0 -733 -2 -737 -14 -9 -22 -198 -291 -207 -294 -5 -2 -15 7 -22
19 -22 39 -116 177 -132 196 -9 10 -55 77 -101 148 -47 72 -91 137 -98 145
-16 17 -99 141 -146 218 -18 28 -36 52 -40 52 -4 0 -22 26 -41 58 -19 31 -44
71 -55 87 -92 130 -226 328 -248 367 -15 26 -41 62 -57 80 l-30 32 0 1432 0
1431 24 24 c13 13 62 83 109 156 47 72 93 139 102 150 21 23 137 199 158 238
8 17 30 46 49 66 18 20 58 78 88 129 30 51 70 108 88 127 18 19 40 49 49 66
19 38 135 213 162 244 10 12 45 63 77 112 l58 91 958 0 c587 0 958 -4 958 -9z
m-4827 -5988 c-139 -2 -367 -2 -505 0 -139 1 -26 2 252 2 278 0 391 -1 253 -2z
m839 0 c-51 -2 -132 -2 -180 0 -48 1 -6 3 93 3 99 0 138 -2 87 -3z m931 0
c-51 -2 -135 -2 -185 0 -51 1 -10 3 92 3 102 0 143 -2 93 -3z m1165 0 c-136
-2 -361 -2 -500 0 -139 1 -28 2 247 2 275 0 389 -1 253 -2z m1255 0 c3 -5 -97
-7 -221 -5 -427 4 -467 8 -125 10 188 1 344 -1 346 -5z m1229 0 c-51 -2 -132
-2 -180 0 -48 1 -6 3 93 3 99 0 138 -2 87 -3z m951 0 l-203 -3 -2 -323 -3
-322 -2 315 c-2 173 -1 320 2 327 3 10 52 12 207 11 l203 -3 -202 -2z m1565 0
c-93 -2 -243 -2 -335 0 -93 1 -17 3 167 3 184 0 260 -2 168 -3z m-7766 -148
l3 -75 -277 0 -277 0 -20 -26 c-19 -24 -21 -40 -21 -184 0 -214 -10 -204 189
-208 l151 -3 0 -72 0 -72 -141 3 -142 3 -28 -27 -29 -28 0 -192 0 -193 25 -26
26 -25 269 0 270 0 0 -70 0 -70 -420 0 -420 0 0 324 c0 275 -2 325 -15 336
-19 16 -19 54 0 70 13 11 15 54 13 311 l-3 299 422 0 421 0 4 -75z m728 55
c11 -11 17 -20 13 -20 -5 0 -1 -6 7 -13 8 -7 35 -39 59 -72 25 -33 48 -61 53
-63 4 -2 8 -8 8 -14 0 -14 109 -156 133 -173 34 -24 75 -19 105 13 35 36 63
72 57 72 -2 0 7 12 20 26 14 15 25 33 25 40 0 7 7 17 16 22 9 5 15 12 15 16
-1 3 31 47 70 96 l72 90 114 0 113 0 0 -297 c0 -277 2 -300 19 -323 19 -24 19
-25 0 -48 -18 -23 -19 -45 -19 -348 l0 -324 -125 0 -125 0 0 400 0 399 -27 26
c-39 35 -86 34 -121 -3 -30 -32 -122 -174 -122 -188 0 -5 -11 -19 -23 -31
l-23 -21 -24 39 c-14 21 -28 39 -32 39 -5 0 -7 3 -6 8 2 4 -5 18 -15 32 -50
70 -67 97 -77 118 -10 23 -46 42 -81 42 -10 0 -33 -13 -49 -29 l-30 -28 0
-402 0 -401 -120 0 -120 0 0 316 c0 317 -3 347 -37 367 -11 7 -9 14 12 38 l25
31 0 294 0 294 110 0 c97 0 112 -2 130 -20z m2205 -55 l0 -75 -277 0 -277 0
-20 -26 c-19 -24 -21 -40 -21 -184 0 -214 -10 -204 189 -208 l151 -3 0 -72 0
-72 -141 3 -142 3 -28 -27 -29 -28 0 -192 0 -193 25 -26 26 -25 269 0 270 0 0
-70 0 -70 -415 0 -415 0 0 320 c0 219 -3 320 -11 320 -5 0 -7 5 -4 10 3 6 2
10 -3 10 -21 0 -22 45 -2 72 19 26 20 44 20 318 l0 290 418 0 417 0 0 -75z
m1065 58 c14 -9 27 -20 30 -23 3 -4 28 -20 55 -36 28 -15 56 -34 63 -41 7 -7
17 -13 21 -13 4 0 17 -9 29 -20 12 -12 22 -18 22 -15 0 2 9 -3 20 -12 19 -16
20 -30 20 -196 l0 -178 -30 -26 c-25 -20 -30 -32 -30 -68 0 -36 5 -48 30 -68
l30 -26 0 -300 0 -301 -125 0 -125 0 0 289 0 288 -25 27 c-23 25 -27 26 -146
26 l-121 0 -29 -31 -29 -31 0 -284 0 -284 -120 0 -120 0 0 325 c0 312 -1 326
-20 345 -11 11 -20 24 -20 28 0 5 9 17 20 27 19 17 20 31 20 317 l0 298 278 0
c244 0 281 -2 302 -17z m1370 -29 c36 -24 76 -52 90 -61 14 -9 44 -29 67 -44
23 -16 46 -29 52 -29 6 0 11 -76 13 -216 3 -197 5 -217 22 -229 18 -13 18 -15
-3 -41 -20 -26 -21 -36 -21 -350 l0 -324 -125 0 -125 0 0 294 0 295 -26 20
c-24 18 -41 21 -141 21 -101 0 -117 -2 -143 -21 l-29 -22 -1 -285 c0 -157 -3
-289 -6 -293 -3 -5 -59 -9 -125 -9 l-119 0 0 318 c0 289 -2 320 -18 347 -18
29 -18 31 0 60 16 26 18 54 18 231 l0 201 35 19 c19 10 35 22 35 26 0 5 6 8
13 8 8 0 34 15 58 32 24 18 67 47 94 65 l50 32 135 0 135 0 65 -45z m950 -246
c0 -266 2 -296 18 -323 18 -29 18 -31 0 -62 -17 -29 -19 -51 -16 -257 3 -200
5 -227 21 -243 16 -16 45 -18 297 -21 l280 -3 0 -69 0 -70 -425 0 -425 0 0
332 c0 283 -2 334 -15 348 -15 17 -11 50 6 50 5 0 9 130 9 298 0 164 3 302 7
305 3 4 60 7 125 7 l118 0 0 -292z m1616 267 c16 -14 39 -28 52 -31 12 -4 22
-9 22 -13 0 -3 21 -19 48 -36 26 -16 56 -37 66 -47 10 -9 23 -15 28 -12 4 3 8
0 8 -5 0 -6 7 -11 15 -11 13 0 15 -29 15 -205 0 -170 3 -210 16 -230 14 -21
14 -26 0 -54 -13 -25 -16 -70 -16 -255 l0 -225 -32 -22 c-18 -13 -36 -28 -40
-34 -5 -6 -8 -6 -8 0 0 7 -3 7 -8 0 -4 -5 -23 -18 -42 -29 -19 -10 -39 -24
-45 -30 -5 -6 -27 -20 -49 -31 -21 -11 -40 -26 -43 -32 -4 -10 -71 -13 -289
-13 l-284 0 0 324 c0 312 -1 324 -21 350 l-20 26 20 26 c20 26 21 38 21 320
l0 294 278 0 279 0 29 -25z m-7998 -202 c-81 -2 -216 -2 -300 0 -84 1 -18 3
147 3 165 0 234 -2 153 -3z m2930 0 c-81 -2 -216 -2 -300 0 -84 1 -18 3 147 3
165 0 234 -2 153 -3z m-3041 -490 c-1 -43 -3 -10 -3 72 0 83 2 118 3 78 2 -40
2 -107 0 -150z m2930 0 c-1 -43 -3 -10 -3 72 0 83 2 118 3 78 2 -40 2 -107 0
-150z m4483 113 c0 -2 -8 -10 -17 -17 -16 -13 -17 -12 -4 4 13 16 21 21 21 13z
m-3909 -103 c13 -16 12 -17 -3 -4 -17 13 -22 21 -14 21 2 0 10 -8 17 -17z
m2666 -530 c-1 -98 -2 -20 -2 172 -1 193 1 273 2 178 2 -94 2 -252 0 -350z
m-920 -26 c-1 -84 -3 -12 -3 158 0 171 2 239 3 152 2 -87 2 -227 0 -310z
m-5620 -749 c-1 -62 -3 -14 -3 107 0 121 2 172 3 113 2 -59 2 -158 0 -220z
m2020 -265 c-1 -109 -2 -20 -2 197 0 217 1 306 2 198 2 -109 2 -287 0 -395z
m4320 265 c-1 -62 -3 -14 -3 107 0 121 2 172 3 113 2 -59 2 -158 0 -220z
m-5737 222 l0 -50 -177 0 c-132 -1 -183 -4 -195 -14 -15 -11 -18 -30 -18 -128
0 -75 4 -118 12 -126 8 -8 47 -12 110 -12 l98 0 0 -50 0 -50 -84 0 c-47 0 -96
-4 -110 -10 l-26 -10 0 -200 0 -200 -85 0 -86 0 1 221 c1 149 -2 225 -10 234
-7 9 -8 15 0 20 6 4 10 80 10 216 l0 209 280 0 280 0 0 -50z m723 30 c14 -11
30 -20 35 -20 6 0 12 -3 14 -7 5 -12 75 -63 86 -63 18 0 22 -31 22 -164 0 -78
4 -136 10 -142 8 -8 8 -19 0 -38 -5 -15 -10 -93 -10 -174 l0 -147 -52 -35
c-28 -19 -56 -40 -62 -46 -32 -31 -82 -44 -168 -44 -84 0 -113 7 -145 37 -7 6
-22 15 -33 18 -11 3 -20 9 -20 13 0 4 -18 18 -40 32 l-40 25 0 162 c0 97 -4
164 -10 168 -7 4 -6 13 1 27 7 12 10 74 10 157 l-2 136 36 19 c19 11 35 24 35
29 0 6 3 8 6 5 3 -4 31 11 61 33 56 38 58 39 148 39 77 0 96 -3 118 -20z m637
-356 l0 -375 32 -30 c27 -24 41 -29 85 -29 45 0 57 4 83 30 l30 29 0 376 0
375 85 0 85 0 0 -201 c0 -115 4 -208 10 -219 6 -11 6 -21 1 -24 -5 -4 -10 -79
-11 -168 -1 -129 -4 -164 -15 -171 -8 -4 -21 -14 -29 -22 -8 -8 -19 -15 -24
-15 -5 0 -17 -9 -27 -20 -10 -11 -23 -20 -29 -20 -6 0 -22 -9 -36 -20 -44 -34
-260 -24 -260 12 0 5 -4 6 -10 3 -5 -3 -10 -3 -10 2 0 4 -27 26 -60 48 l-60
40 0 160 c0 112 -4 165 -12 173 -9 9 -9 15 0 24 9 9 12 70 12 215 l0 203 80 0
80 0 0 -376z m881 356 c4 -8 29 -60 54 -115 26 -55 63 -132 81 -170 19 -39 34
-75 34 -79 0 -20 34 -46 60 -46 48 0 50 9 50 227 l0 203 85 0 85 0 0 -203 c0
-127 4 -207 10 -213 8 -8 8 -19 0 -38 -6 -16 -10 -116 -10 -237 l0 -209 -80 0
-80 0 -21 48 c-11 26 -35 79 -53 117 -18 39 -50 108 -71 155 -21 47 -43 91
-48 98 -13 17 -57 15 -79 -5 -16 -15 -18 -35 -18 -215 l0 -198 -80 0 -80 0 0
218 c0 148 -4 222 -11 229 -9 9 -9 20 0 44 7 19 11 107 11 221 l0 189 76 -3
c56 -2 79 -7 85 -18z m1161 4 c17 -9 40 -25 51 -35 12 -10 27 -19 34 -19 7 0
13 -4 13 -8 0 -4 14 -16 30 -25 l30 -18 0 -130 c0 -92 4 -138 14 -157 12 -24
12 -30 0 -47 -11 -14 -14 -57 -14 -177 0 -98 -4 -158 -10 -158 -9 0 -109 -67
-120 -81 -19 -24 -62 -29 -234 -29 l-186 0 0 216 c0 136 -4 223 -11 236 -8 14
-8 23 0 31 7 7 11 81 11 214 l0 203 180 0 c147 0 187 -3 212 -16z m885 -6 c21
-12 40 -26 41 -30 2 -4 8 -8 13 -8 6 0 30 -15 54 -32 l44 -33 1 -132 c0 -79 5
-142 12 -158 9 -19 9 -28 0 -37 -9 -9 -12 -77 -12 -230 l0 -218 -80 0 -80 0 0
188 c0 236 2 232 -112 232 -122 0 -118 8 -118 -227 l0 -193 -80 0 -79 0 -5
223 c-2 122 -4 231 -4 242 -1 11 2 85 4 165 l5 145 44 33 c24 17 49 32 54 32
6 0 14 6 18 14 18 31 68 45 155 46 72 0 93 -4 125 -22z m1221 -25 l-3 -48
-140 -3 c-182 -3 -175 3 -175 -161 0 -86 4 -134 14 -152 11 -22 11 -29 0 -44
-11 -15 -14 -68 -14 -232 l0 -213 -80 0 -80 0 0 224 c0 149 -4 226 -11 228 -7
2 -7 12 0 31 6 16 11 89 11 162 0 123 -2 135 -19 145 -11 5 -78 10 -150 10
l-131 0 0 50 0 50 391 0 390 0 -3 -47z m442 -156 c0 -133 4 -207 11 -214 8 -8
8 -17 0 -31 -7 -13 -11 -100 -11 -236 l0 -216 -85 0 -86 0 1 220 c1 121 0 223
-2 227 -2 5 -2 108 0 231 l3 222 85 0 84 0 0 -203z m738 170 c26 -19 52 -36
57 -38 6 -2 27 -15 47 -29 l38 -25 0 -141 c0 -88 4 -144 11 -151 8 -8 8 -17 0
-31 -7 -12 -11 -83 -12 -174 l0 -153 -62 -45 c-34 -25 -62 -43 -62 -40 0 3
-13 -5 -29 -17 -25 -20 -40 -23 -126 -23 -96 0 -99 1 -146 35 -27 19 -56 38
-64 42 -8 4 -24 16 -37 27 -22 19 -23 26 -23 171 0 114 -3 156 -14 170 -12 17
-12 23 0 47 10 19 14 65 14 156 l0 129 53 36 c89 62 102 72 105 78 2 4 48 7
103 8 99 2 100 2 147 -32z m687 -124 c125 -265 126 -268 158 -271 17 -2 37 4
48 14 17 16 19 33 19 216 l0 198 80 0 79 0 5 -207 c2 -115 4 -215 4 -223 0 -8
-2 -117 -4 -242 l-5 -228 -77 0 -77 0 -35 73 c-19 39 -35 74 -35 77 0 3 -21
48 -47 100 -25 52 -53 112 -62 132 -24 53 -61 62 -93 22 -22 -28 -23 -35 -23
-216 l0 -188 -79 0 -80 0 -3 225 c-2 172 -6 228 -16 234 -10 6 -10 10 3 21 13
10 15 45 15 216 l0 204 75 0 76 0 74 -157z m-7978 -680 c-1 -65 -3 -12 -3 117
0 129 2 182 3 118 2 -65 2 -171 0 -235z m6340 0 c-1 -65 -3 -12 -3 117 0 129
2 182 3 118 2 -65 2 -171 0 -235z m-1510 -10 c-1 -59 -3 -13 -3 102 0 116 2
164 3 108 2 -56 2 -151 0 -210z m-5772 -722 c23 -58 77 -175 119 -258 42 -84
76 -155 76 -158 0 -3 -63 -5 -140 -5 l-140 0 0 303 1 302 20 -39 c12 -21 40
-87 64 -145z m10354 -398 c-12 -22 -18 -23 -131 -23 l-118 0 84 168 c46 92
103 217 127 277 l44 110 3 -255 c2 -183 -1 -261 -9 -277z m-8649 -1768 c0
-137 4 -215 10 -215 6 0 10 -45 10 -115 0 -63 -2 -115 -5 -115 -10 0 -45 35
-45 45 0 7 -11 22 -25 35 -14 13 -23 26 -20 28 3 3 -4 12 -15 19 -11 8 -18 18
-15 22 2 5 -7 19 -20 31 -14 13 -25 30 -25 37 0 8 -7 16 -15 19 -8 4 -15 12
-15 19 0 6 -9 20 -20 30 -11 10 -20 24 -20 30 0 7 -7 15 -15 19 -8 3 -15 11
-15 18 0 7 -14 28 -30 46 l-30 32 -465 0 c-264 0 -465 4 -465 9 0 5 -20 12
-45 15 -25 4 -45 11 -45 17 0 5 -8 9 -17 9 -10 0 -30 6 -45 14 -15 8 -42 17
-60 21 -18 4 -37 11 -43 15 -5 4 -23 10 -40 14 -29 6 -68 23 -127 53 -14 7
-36 13 -47 13 -12 0 -21 4 -21 9 0 5 -13 12 -30 16 -16 4 -30 11 -30 16 0 5
357 9 895 9 l895 0 0 -215z m2990 105 c0 -7 170 -10 490 -10 421 0 490 -2 490
-15 0 -7 6 -18 13 -22 14 -9 32 -37 47 -70 5 -13 14 -23 20 -23 5 0 12 -11 16
-25 3 -14 10 -25 14 -25 5 0 16 -14 24 -32 14 -27 16 -101 16 -583 l0 -552
-25 -23 c-14 -13 -25 -29 -25 -36 0 -7 -6 -17 -12 -21 -15 -9 -33 -37 -48 -70
-5 -13 -14 -23 -20 -23 -5 0 -10 -5 -10 -12 0 -6 -7 -20 -17 -30 -15 -17 -42
-18 -446 -18 -387 0 -432 2 -449 17 -10 9 -18 20 -18 26 0 5 -11 18 -25 29
-14 11 -25 26 -25 34 0 8 -6 17 -14 20 -8 3 -17 16 -20 30 -4 13 -10 24 -15
24 -5 0 -17 14 -25 32 -14 27 -16 101 -16 584 0 478 -2 555 -15 568 -8 8 -15
19 -15 24 0 5 -9 17 -20 27 -11 10 -20 24 -20 32 0 7 -4 13 -9 13 -10 0 -34
38 -47 73 -3 9 -10 17 -15 17 -10 0 -12 34 -2 43 11 11 223 8 223 -3z m2340
-31 c22 -23 40 -45 40 -50 0 -5 27 -35 60 -66 33 -31 60 -61 60 -68 0 -6 14
-24 30 -40 l30 -29 0 -207 0 -208 -81 -39 c-79 -40 -80 -40 -57 -56 12 -9 26
-16 31 -16 5 0 24 -12 43 -26 19 -15 34 -23 34 -19 0 4 7 2 15 -5 13 -10 15
-51 15 -251 0 -132 3 -239 8 -239 4 0 13 -10 19 -22 32 -62 47 -94 45 -100 -1
-5 2 -8 7 -8 7 0 19 -28 19 -47 0 -3 5 -9 10 -12 5 -3 12 -16 16 -28 l7 -23
-295 0 c-293 0 -295 0 -310 22 -9 12 -16 33 -16 45 0 13 -4 23 -10 23 -5 0
-10 8 -10 18 0 9 -9 34 -20 55 -11 20 -20 46 -20 57 0 11 -4 20 -10 20 -6 0
-10 75 -10 205 l0 205 -60 0 -60 0 0 -145 c0 -90 -4 -145 -10 -145 -6 0 -10
-27 -10 -60 0 -33 4 -60 9 -60 5 0 12 -13 16 -30 4 -16 10 -30 15 -30 5 0 12
-15 15 -32 4 -18 14 -42 21 -53 8 -11 14 -30 14 -42 0 -13 4 -23 10 -23 5 0 7
-7 4 -15 -5 -13 -59 -15 -394 -15 -259 0 -391 3 -395 10 -4 6 5 26 19 44 14
18 28 45 32 60 3 14 10 26 15 26 5 0 9 7 9 15 0 9 6 18 14 21 8 3 18 18 21 34
3 16 13 34 21 41 12 10 14 94 14 546 l0 534 -22 32 c-13 18 -26 34 -30 35 -5
2 -8 8 -8 13 0 11 -42 72 -52 77 -5 2 -8 9 -8 15 0 6 -7 18 -15 28 -11 11 -14
26 -9 43 l6 26 564 0 564 0 40 -41z m1680 -8 c0 -28 5 -53 10 -56 10 -6 15
-485 5 -485 -11 0 -65 54 -65 65 0 7 -7 18 -15 25 -9 7 -13 15 -11 18 3 2 -6
13 -19 24 -14 11 -25 25 -25 32 0 7 -9 21 -20 31 -11 10 -20 22 -20 27 0 5
-12 20 -26 33 -24 22 -36 25 -101 25 l-74 0 3 -535 c2 -435 6 -537 16 -544 13
-8 31 -35 48 -71 4 -8 13 -19 21 -23 7 -4 13 -13 13 -19 0 -6 6 -19 14 -27 8
-9 18 -28 21 -43 l7 -28 -425 0 -426 0 15 28 c7 15 14 33 14 40 0 6 4 12 9 12
10 0 34 38 47 73 3 9 10 17 15 17 5 0 9 7 9 15 0 7 8 18 18 24 16 9 17 45 17
543 l0 533 -64 3 c-54 3 -67 0 -87 -19 -13 -12 -24 -27 -24 -33 0 -6 -9 -17
-20 -24 -12 -7 -25 -23 -31 -35 -20 -44 -38 -71 -53 -79 -9 -5 -16 -15 -16
-23 0 -7 -11 -22 -25 -33 -14 -11 -25 -25 -25 -31 0 -6 -4 -11 -10 -11 -6 0
-10 107 -10 300 l0 300 645 0 645 0 0 -49z m-5820 -276 l0 -305 45 0 45 0 0
-365 c0 -205 -4 -365 -9 -365 -5 0 -12 -8 -15 -17 -12 -34 -37 -73 -46 -73 -5
0 -12 -10 -16 -22 -4 -12 -17 -31 -30 -41 -13 -10 -24 -23 -24 -29 0 -6 -11
-21 -26 -34 l-25 -24 -500 0 -499 0 2 690 c3 565 5 692 16 699 13 8 30 33 49
71 4 8 17 23 30 33 13 10 21 22 18 26 -2 5 4 16 15 26 11 10 17 22 14 26 -3 5
207 9 475 9 l481 0 0 -305z m1393 271 c14 -18 29 -45 33 -60 3 -14 10 -26 15
-26 5 0 9 -7 9 -15 0 -9 6 -18 14 -21 8 -3 17 -17 21 -32 4 -15 18 -41 31 -59
24 -32 24 -33 22 -235 -3 -200 -3 -203 -25 -213 -13 -5 -23 -13 -23 -17 0 -3
-21 -17 -47 -30 -27 -12 -61 -32 -78 -45 -16 -12 -42 -24 -57 -28 -15 -4 -29
-13 -32 -21 -3 -8 -12 -14 -21 -14 -8 0 -15 -4 -15 -9 0 -5 -8 -12 -17 -15
-10 -4 -36 -17 -58 -30 -37 -23 -51 -24 -182 -25 l-143 -1 0 -208 0 -209 25
-23 c13 -12 23 -26 20 -30 -2 -3 7 -14 21 -24 13 -11 24 -24 24 -31 0 -6 9
-20 20 -30 11 -10 20 -22 20 -28 0 -5 11 -18 25 -29 14 -11 25 -24 25 -29 0
-5 -177 -9 -441 -9 l-441 0 6 26 c4 15 17 41 30 58 13 17 26 39 29 49 4 9 11
17 16 17 5 0 12 14 16 30 4 17 10 30 15 30 5 0 11 14 15 30 4 17 11 30 16 30
5 0 9 216 9 535 0 329 -4 535 -9 535 -10 0 -34 38 -47 73 -3 9 -10 17 -15 17
-5 0 -14 10 -19 23 -15 33 -33 61 -47 70 -7 4 -13 19 -13 32 l0 25 614 0 614
0 25 -34z m5627 -271 l0 -305 40 0 40 0 0 -379 0 -380 -25 -19 c-14 -11 -25
-24 -25 -29 0 -6 -9 -18 -20 -28 -11 -10 -20 -24 -20 -31 0 -7 -11 -21 -25
-32 -14 -11 -25 -23 -25 -28 0 -4 -7 -16 -17 -26 -15 -17 -45 -18 -520 -18
l-503 0 0 684 0 685 23 18 c24 20 41 45 57 81 5 12 14 22 20 22 5 0 10 6 10
14 0 8 7 22 16 30 8 9 12 16 8 16 -3 0 -1 7 6 15 11 13 77 15 486 15 l474 0 0
-305z m-9580 134 c0 -7 122 -10 388 -8 l387 1 3 -186 2 -186 65 0 c48 0 65 4
65 13 0 8 9 22 20 32 11 10 20 23 20 29 0 6 14 22 30 36 17 14 30 30 30 36 0
6 11 21 25 34 14 13 25 28 25 34 0 11 43 56 54 56 3 0 6 -189 6 -420 0 -273
-3 -420 -10 -420 -5 0 -10 6 -10 13 0 7 -16 28 -35 47 -19 19 -35 39 -35 45 0
6 -25 33 -55 60 -30 28 -55 54 -55 59 0 28 -35 46 -87 46 l-53 0 0 -233 c0
-168 3 -236 12 -245 8 -8 49 -12 120 -12 95 0 110 2 128 20 11 11 20 23 20 27
0 3 7 15 17 25 19 21 40 56 49 81 3 9 10 17 15 17 5 0 14 10 19 23 16 35 33
60 58 80 12 10 20 22 17 27 -3 5 4 15 15 23 11 7 18 16 15 19 -3 3 1 11 10 18
8 7 15 18 15 25 0 8 11 22 25 33 14 11 25 23 25 28 0 11 31 44 42 44 4 0 8
-164 8 -365 l0 -365 -675 0 c-663 0 -675 0 -675 20 0 10 6 23 13 27 14 9 30
34 52 78 23 45 39 69 52 78 6 4 14 21 18 37 4 17 11 30 16 30 11 0 12 889 1
907 -4 6 -20 15 -35 18 -15 4 -27 11 -27 15 0 5 -13 11 -30 15 -16 4 -30 10
-30 14 0 4 -25 21 -56 37 -31 16 -65 33 -75 39 -11 5 -19 13 -19 17 0 5 -5 8
-12 8 -20 0 -48 32 -48 57 0 22 3 23 70 23 42 0 70 -4 70 -11z m3862 -2949
c65 -51 568 -364 694 -431 169 -91 349 -93 509 -5 117 64 631 384 698 435 l68
51 267 -2 267 -3 -109 -90 c-61 -49 -151 -124 -200 -165 -116 -97 -156 -123
-476 -319 -146 -89 -317 -197 -380 -240 -63 -43 -177 -107 -254 -143 l-139
-66 -126 61 c-69 33 -178 96 -241 138 -63 43 -234 151 -380 240 -320 196 -361
223 -470 314 -47 39 -132 110 -190 157 -161 131 -175 118 133 118 l266 0 63
-50z"/>
<path d="M10750 15388 c-96 -4 -262 -5 -367 -2 -128 4 -193 3 -193 -4 0 -6 23
-13 52 -17 33 -5 59 -15 73 -30 22 -21 23 -33 30 -251 10 -290 0 -876 -15
-926 -12 -42 -34 -58 -80 -58 -18 0 -30 -5 -28 -11 2 -7 121 -12 364 -16 318
-4 362 -3 373 11 13 16 46 205 37 213 -10 10 -24 -8 -30 -41 -9 -45 -41 -85
-84 -103 -43 -18 -265 -20 -317 -3 -66 22 -70 41 -70 330 l0 255 157 0 c144 0
159 -2 185 -21 18 -14 31 -35 37 -63 12 -55 26 -52 26 7 0 26 5 78 10 116 6
38 8 71 6 73 -2 3 -17 -4 -33 -15 -24 -17 -51 -21 -200 -26 -164 -6 -173 -5
-183 13 -12 24 -14 470 -1 490 7 10 42 12 168 10 198 -5 217 -14 238 -112 10
-47 22 -22 29 60 3 43 9 90 12 106 5 19 3 27 -7 25 -8 0 -93 -5 -189 -10z"/>
<path d="M10507 13118 c-46 -68 -151 -222 -234 -343 -82 -121 -184 -270 -226
-331 -42 -62 -77 -115 -77 -118 0 -3 281 -6 625 -6 344 0 625 3 625 8 0 4 -37
61 -83 127 -45 67 -183 270 -307 453 -124 182 -228 331 -232 332 -4 0 -45 -55
-91 -122z"/>
<path d="M10587 11302 c-10 -10 -14 -22 -10 -25 3 -4 1 -7 -5 -7 -9 0 -12 -45
-12 -160 0 -106 4 -160 11 -160 5 0 8 -4 5 -9 -3 -5 5 -16 19 -25 19 -12 51
-16 143 -16 117 0 119 0 145 28 27 28 27 30 27 170 0 154 3 144 -63 200 -25
20 -38 22 -136 22 -92 0 -110 -3 -124 -18z m171 -59 c-21 -2 -55 -2 -75 0 -21
2 -4 4 37 4 41 0 58 -2 38 -4z"/>
<path d="M11940 11284 l-40 -36 0 -153 0 -154 26 -20 c24 -19 40 -21 144 -21
104 0 120 2 144 21 l26 20 0 150 c0 135 -2 152 -20 171 -44 48 -71 58 -157 58
-81 0 -84 -1 -123 -36z m153 -41 c-13 -2 -35 -2 -50 0 -16 2 -5 4 22 4 28 0
40 -2 28 -4z m-116 -205 c-2 -35 -3 -9 -3 57 0 66 1 94 3 63 2 -32 2 -86 0
-120z"/>
<path d="M14511 11294 c-21 -26 -21 -36 -21 -500 l0 -473 25 -26 c24 -23 32
-25 121 -25 102 0 122 7 177 62 l27 28 0 440 0 439 -41 41 -41 40 -113 0
c-111 0 -114 -1 -134 -26z m167 -51 c-21 -2 -55 -2 -75 0 -21 2 -4 4 37 4 41
0 58 -2 38 -4z"/>
<path d="M7476 9609 l-26 -20 0 -307 0 -306 27 -28 c23 -24 34 -28 83 -28 48
0 60 4 88 29 l32 30 0 300 0 299 -31 26 c-41 35 -132 37 -173 5z"/>
<path d="M10151 9616 c-16 -19 -16 -663 0 -683 8 -8 35 -13 79 -13 61 0 71 3
99 29 l31 29 0 305 0 306 -26 20 c-21 17 -41 21 -99 21 -50 0 -76 -4 -84 -14z
m36 -488 c-1 -84 -3 -16 -3 152 0 168 2 236 3 153 2 -84 2 -222 0 -305z"/>
<path d="M11038 9609 c-27 -20 -28 -23 -28 -120 0 -139 0 -139 115 -139 117 0
118 1 113 142 -3 92 -5 101 -28 118 -36 28 -135 27 -172 -1z m149 -171 c-2
-24 -4 -5 -4 42 0 47 2 66 4 43 2 -24 2 -62 0 -85z"/>
<path d="M13426 9609 l-26 -20 0 -308 0 -308 32 -27 c42 -35 119 -36 160 -3
l27 22 1 310 1 310 -26 23 c-36 31 -130 32 -169 1z"/>
<path d="M5765 6116 c11 -7 36 -17 55 -21 19 -4 41 -12 49 -19 10 -8 156 -12
497 -14 l483 -3 46 -53 c25 -29 45 -57 45 -61 0 -5 17 -29 38 -54 21 -25 41
-54 45 -63 3 -10 11 -18 17 -18 6 0 10 57 10 160 l0 160 -652 0 c-556 0 -650
-2 -633 -14z"/>
<path d="M10010 6024 c0 -4 16 -26 35 -50 19 -23 35 -47 35 -52 0 -5 7 -15 15
-22 12 -10 15 -94 17 -579 l3 -566 43 -51 c23 -28 42 -55 42 -60 0 -6 10 -20
23 -32 23 -22 27 -22 414 -22 365 0 391 1 406 18 10 10 17 22 17 26 0 4 11 22
25 40 14 18 25 37 25 43 0 5 11 20 25 33 l25 23 0 524 c0 565 3 532 -57 610
-18 23 -33 45 -33 50 -1 4 -9 18 -19 31 l-19 22 -471 0 c-302 0 -472 4 -476
10 -7 11 -75 14 -75 4z m722 -91 l28 -27 0 -596 0 -596 -28 -27 c-25 -24 -36
-27 -97 -27 -61 0 -72 3 -97 27 l-28 27 0 595 0 595 27 28 c24 25 33 28 97 28
62 0 73 -3 98 -27z"/>
<path d="M10590 5310 l0 -570 45 0 45 0 0 570 0 570 -45 0 -45 0 0 -570z"/>
<path d="M11400 6021 c0 -4 9 -20 20 -34 11 -14 20 -28 20 -32 0 -4 14 -24 30
-45 l30 -38 0 -565 c0 -372 -3 -568 -10 -572 -6 -4 -17 -21 -25 -38 -8 -18
-24 -45 -34 -62 -11 -16 -20 -33 -20 -37 -1 -5 118 -8 264 -8 304 0 286 -7
235 94 -25 49 -30 71 -30 132 0 40 5 76 10 79 6 4 10 65 10 152 0 137 1 147
23 169 20 21 30 24 113 24 86 0 92 -1 116 -27 l27 -28 3 -215 c4 -211 4 -216
30 -262 15 -26 30 -63 34 -83 l6 -35 209 0 c115 0 209 1 209 3 0 6 -40 81 -60
112 -17 27 -19 52 -19 248 -1 214 -1 219 -23 238 -13 10 -28 18 -34 19 -6 0
-32 18 -58 41 -37 33 -46 47 -46 73 0 39 23 62 103 101 l57 28 0 167 0 166
-30 29 c-16 16 -30 33 -30 38 0 5 -31 43 -70 84 -38 41 -70 79 -70 84 0 5
-209 9 -495 9 -272 0 -495 -4 -495 -9z m762 -88 l28 -27 0 -251 0 -251 -28
-27 c-26 -25 -34 -27 -122 -27 -82 0 -96 3 -117 22 -23 21 -23 23 -23 277 l0
255 27 28 c25 27 31 28 117 28 84 0 92 -2 118 -27z"/>
<path d="M11980 5650 l0 -230 58 0 c32 0 63 5 70 12 9 9 12 74 12 230 l0 218
-70 0 -70 0 0 -230z"/>
<path d="M12920 5890 c0 -120 2 -139 15 -134 8 4 15 11 15 18 0 6 22 33 48 59
l48 47 90 0 c89 0 91 0 122 -33 l32 -33 0 -544 0 -543 -25 -33 c-14 -18 -25
-37 -25 -42 0 -5 -9 -21 -21 -36 l-20 -26 293 0 c161 0 289 4 283 8 -11 8 -31
38 -42 62 -3 8 -15 26 -25 39 -17 22 -18 56 -18 580 l0 556 24 23 c22 20 34
22 129 22 l105 0 61 -66 61 -67 0 95 c0 52 -3 116 -6 142 l-7 46 -568 0 -569
0 0 -140z"/>
<path d="M7400 5995 c0 -7 -6 -18 -12 -22 -17 -11 -58 -69 -58 -83 0 -5 -4
-10 -10 -10 -5 0 -16 -15 -25 -33 -13 -28 -15 -78 -13 -332 l3 -300 270 -3
269 -2 28 -27 28 -27 0 -220 0 -220 -27 -28 -27 -28 -156 0 -156 0 -47 48
c-26 26 -47 51 -47 55 0 5 -11 20 -25 35 -62 68 -95 110 -95 121 0 7 -4 9 -10
6 -6 -4 -10 -72 -10 -171 l0 -164 455 0 c334 0 455 3 455 11 0 7 20 36 45 65
25 28 45 56 45 61 0 4 9 19 20 33 18 24 20 43 20 333 l0 307 -288 0 -288 0
-32 29 -32 30 0 221 0 222 29 29 29 29 140 0 139 0 56 -59 c31 -33 57 -63 57
-69 0 -5 9 -17 20 -27 11 -10 20 -22 20 -27 0 -5 11 -19 23 -31 13 -12 27 -29
30 -37 3 -8 6 56 6 143 l1 157 -415 0 c-356 0 -415 -2 -415 -15z"/>
<path d="M7760 5680 l0 -200 266 0 267 0 -27 33 c-14 17 -31 42 -36 54 -5 12
-18 28 -30 35 -11 7 -20 18 -20 24 0 6 -9 19 -20 29 -11 10 -20 24 -20 31 0 7
-12 22 -27 33 -14 12 -23 24 -20 27 4 4 -5 15 -18 26 -14 11 -25 24 -25 30 0
6 -16 26 -35 44 l-34 34 -111 0 -110 0 0 -200z"/>
<path d="M7248 5113 c12 -8 22 -21 22 -27 0 -7 11 -23 25 -36 14 -13 25 -28
25 -34 0 -6 14 -22 30 -36 17 -14 30 -30 30 -36 0 -5 14 -23 30 -39 17 -16 30
-33 30 -38 0 -6 14 -23 32 -39 17 -15 28 -28 23 -28 -5 0 4 -13 20 -30 l29
-30 128 0 128 0 0 195 0 195 -287 -1 c-265 0 -286 -1 -265 -16z"/>
<path d="M8590 5999 c0 -6 12 -28 28 -48 55 -72 52 -42 52 -637 l0 -557 -30
-63 c-16 -34 -34 -65 -40 -69 -5 -3 -10 -13 -10 -21 0 -12 44 -14 285 -14 207
0 285 3 285 11 0 7 -20 36 -45 65 l-45 52 0 233 0 233 27 28 27 28 136 0 c127
0 140 2 181 25 24 14 51 28 59 32 8 3 17 9 20 12 10 11 36 26 180 103 l65 34
3 169 c2 135 0 171 -12 184 -16 18 -50 77 -90 159 l-27 52 -524 0 c-377 0
-525 -3 -525 -11z m742 -76 l38 -37 0 -245 c0 -305 7 -291 -144 -291 -95 0
-101 1 -128 27 l-28 27 0 248 0 249 32 30 c30 27 38 29 112 29 79 0 81 -1 118
-37z"/>
<path d="M9150 5650 l0 -230 70 0 70 0 0 214 c0 118 -3 221 -6 230 -5 12 -21
16 -70 16 l-64 0 0 -230z"/>
<path d="M14423 6003 c-7 -2 -13 -9 -13 -14 0 -11 -42 -72 -52 -77 -5 -2 -8
-9 -8 -16 0 -7 -9 -21 -20 -31 -19 -17 -20 -31 -20 -337 l0 -318 273 0 272 0
23 -24 c21 -23 22 -29 22 -247 l0 -223 -27 -28 -27 -28 -161 0 -161 0 -27 28
c-15 15 -27 33 -27 38 0 5 -13 21 -30 34 -16 14 -29 30 -30 36 0 6 -9 19 -20
29 -11 10 -20 22 -20 27 0 8 -48 58 -56 58 -2 0 -4 -72 -4 -160 l0 -160 443 0
444 0 21 23 c12 13 22 27 22 31 0 4 20 32 45 60 l45 53 0 322 0 321 -282 0
-282 0 -28 27 -28 27 0 225 0 225 27 28 27 28 136 0 137 0 57 -62 c85 -93 86
-94 86 -103 0 -4 14 -23 30 -42 17 -18 30 -38 30 -44 0 -6 5 -7 10 -4 6 4 10
67 10 156 l0 149 -412 -1 c-227 0 -419 -3 -425 -6z"/>
<path d="M14790 5680 l0 -200 262 0 c252 0 261 1 245 18 -10 10 -17 24 -17 30
0 6 -9 16 -20 22 -11 6 -20 18 -20 26 0 9 -11 25 -25 36 -14 11 -25 26 -25 33
0 8 -9 19 -20 25 -11 6 -20 17 -20 24 0 7 -11 23 -25 36 -13 12 -22 26 -20 31
3 4 -6 16 -20 27 -14 11 -25 24 -25 28 0 5 -12 21 -25 37 -23 26 -27 27 -135
27 l-110 0 0 -200z"/>
<path d="M14272 5108 c7 -12 23 -32 36 -44 12 -12 22 -26 22 -31 0 -5 14 -22
30 -38 17 -16 30 -34 30 -39 0 -6 14 -22 30 -36 17 -14 30 -30 30 -36 0 -6 9
-19 20 -29 11 -10 20 -23 20 -30 0 -7 14 -22 30 -35 17 -13 30 -29 30 -36 0
-11 28 -14 135 -14 l135 0 0 195 0 195 -280 0 -280 0 12 -22z"/>
<path d="M5850 5833 c0 -5 21 -17 47 -28 26 -11 67 -37 90 -59 l43 -39 0 -478
c0 -285 -4 -479 -9 -479 -5 0 -12 -13 -16 -30 -4 -16 -11 -30 -16 -30 -5 0
-14 -10 -19 -22 -13 -31 -33 -61 -45 -70 -5 -4 248 -8 563 -8 l572 0 0 208 -1
207 -34 -40 c-19 -22 -35 -44 -35 -49 0 -4 -13 -25 -30 -46 -16 -21 -30 -42
-30 -47 0 -4 -27 -39 -61 -76 l-61 -67 -146 0 c-145 0 -146 0 -174 27 l-28 27
0 266 0 266 28 27 c25 24 35 27 102 27 74 0 75 0 117 -42 24 -23 43 -46 43
-50 0 -13 38 -47 44 -41 11 11 7 401 -4 408 -5 3 -10 0 -10 -8 0 -8 -9 -22
-20 -32 -11 -10 -20 -22 -20 -27 0 -5 -13 -23 -29 -39 -28 -27 -34 -29 -113
-29 -79 0 -86 2 -111 28 -26 27 -27 30 -29 187 l-3 160 -302 3 c-167 1 -303
-1 -303 -5z"/>
</g>
</svg>
