<?xml version="1.0" standalone="no"?>
<!DOCTYPE svg PUBLIC "-//W3C//DTD SVG 20010904//EN"
 "http://www.w3.org/TR/2001/REC-SVG-20010904/DTD/svg10.dtd">
<svg version="1.0" xmlns="http://www.w3.org/2000/svg"
 width="260.000000pt" height="260.000000pt" viewBox="0 0 260.000000 260.000000"
 preserveAspectRatio="xMidYMid meet">
<metadata>
Created by potrace 1.11, written by Peter Selinger 2001-2013
</metadata>
<g transform="translate(0.000000,260.000000) scale(0.100000,-0.100000)"
fill="#000000" stroke="none">
<path d="M1140 1540 c0 -5 11 -10 24 -10 13 0 27 -7 30 -16 10 -26 7 -441 -4
-468 -5 -14 -16 -26 -25 -26 -8 0 -15 -3 -15 -7 0 -11 297 -16 304 -5 12 21
18 92 7 92 -6 0 -11 -8 -11 -19 0 -10 -6 -24 -14 -30 -15 -13 -138 -17 -156
-6 -6 4 -10 55 -10 121 l0 114 48 0 c68 0 90 -9 101 -39 l9 -26 1 26 c1 15 4
41 7 59 7 30 6 32 -14 21 -11 -6 -50 -11 -86 -11 l-66 0 0 105 0 105 39 0 c68
0 101 -11 116 -39 9 -17 14 -20 15 -10 0 9 3 31 6 48 l7 31 -157 0 c-97 0
-156 -4 -156 -10z"/>
<path d="M772 1085 c-77 -113 -122 -191 -120 -203 2 -11 89 -148 193 -306
l190 -286 269 3 269 2 189 289 c103 160 188 300 188 312 0 12 -52 98 -115 190
-63 92 -116 172 -119 178 -3 7 -8 6 -15 -4 -150 -228 -394 -579 -400 -576 -5
3 -97 136 -205 296 -108 159 -198 290 -199 290 -1 -1 -57 -84 -125 -185z"/>
<path d="M1799 537 l-196 -302 -299 0 -299 0 -191 288 c-105 158 -195 292
-201 298 -8 8 -26 -11 -62 -65 -28 -41 -51 -78 -51 -81 0 -3 19 -33 43 -68 37
-53 228 -333 329 -483 l29 -44 403 0 403 0 124 183 c68 100 159 234 202 298
l79 116 -54 82 c-29 44 -55 81 -58 81 -3 0 -93 -136 -201 -303z"/>
</g>
</svg>
